<?xml version="1.0" encoding="iso-8859-1"?>
<!-- Generator: Adobe Illustrator 19.0.0, SVG Export Plug-In . SVG Version: 6.00 Build 0)  -->
<svg version="1.1" id="Capa_1" xmlns="http://www.w3.org/2000/svg" xmlns:xlink="http://www.w3.org/1999/xlink" x="0px" y="0px"
	 viewBox="0 0 512 512" style="enable-background:new 0 0 512 512;" xml:space="preserve">
<path style="fill:#FF983B;" d="M424.5,45.5h-337c-16.569,0-30,13.431-30,30v190c0,16.569,13.431,30,30,30h337
	c16.569,0,30-13.431,30-30v-190C454.5,58.931,441.068,45.5,424.5,45.5z"/>
<path style="fill:#FF6344;" d="M87.5,295.5h337c16.569,0,30-13.431,30-30v-190c0-16.569-13.431-30-30-30v220h-367
	C57.5,282.069,70.931,295.5,87.5,295.5z"/>
<polygon style="fill:#FFCF5D;" points="301,170.5 256,193 211,215.5 211,170.5 211,125.5 256,148 "/>
<g>
	<path style="fill:#224B80;" d="M97.5,296c0-22.091-17.909-45-40-45s-40,22.909-40,45c0,15.444,8.758,28.834,21.574,35.5
		c-11.915,0-21.574,9.659-21.574,21.573V371.5h80v-18.427c0-11.915-9.659-21.573-21.574-21.573
		C88.742,324.834,97.5,311.444,97.5,296z"/>
	<path style="fill:#224B80;" d="M229.833,296c0-22.091-17.909-45-40-45s-40,22.909-40,45c0,15.444,8.758,28.834,21.574,35.5
		c-11.915,0-21.574,9.659-21.574,21.573V371.5h80v-18.427c0-11.915-9.659-21.573-21.574-21.573
		C221.075,324.834,229.833,311.444,229.833,296z"/>
	<path style="fill:#224B80;" d="M362.167,296c0-22.091-17.909-45-40-45s-40,22.909-40,45c0,15.444,8.758,28.834,21.574,35.5
		c-11.915,0-21.574,9.659-21.574,21.573V371.5h80v-18.427c0-11.915-9.659-21.573-21.574-21.573
		C353.408,324.834,362.167,311.444,362.167,296z"/>
	<path style="fill:#224B80;" d="M472.926,331.5c12.815-6.666,21.574-20.056,21.574-35.5c0-22.091-17.909-45-40-45s-40,22.909-40,45
		c0,15.444,8.758,28.834,21.574,35.5c-11.915,0-21.574,9.659-21.574,21.573V371.5h80v-18.427
		C494.5,341.159,484.841,331.5,472.926,331.5z"/>
</g>
<g>
	<path style="fill:#517AAC;" d="M57.5,251c-22.091,0-40,22.909-40,45c0,4.145,0.649,8.135,1.82,11.894
		c9.907,2.916,21.557,2.065,30.443-2.557c12.815-6.666,21.574-20.056,21.574-35.5c0-5.786-1.243-11.651-3.454-17.123
		C64.57,251.599,61.096,251,57.5,251z"/>
	<path style="fill:#517AAC;" d="M189.833,251c-22.091,0-40,22.909-40,45c0,4.145,0.649,8.135,1.82,11.894
		c9.907,2.916,21.557,2.065,30.443-2.557c12.815-6.666,21.574-20.056,21.574-35.5c0-5.782-1.24-11.652-3.447-17.121
		C196.91,251.601,193.429,251,189.833,251z"/>
	<path style="fill:#517AAC;" d="M322.167,251c-22.091,0-40,22.909-40,45c0,4.145,0.649,8.135,1.82,11.894
		c9.907,2.916,21.557,2.065,30.443-2.557c12.815-6.666,21.574-20.056,21.574-35.5c0-5.779-1.251-11.657-3.457-17.124
		C329.235,251.599,325.761,251,322.167,251z"/>
	<path style="fill:#517AAC;" d="M454.5,251c-22.091,0-40,22.909-40,45c0,4.145,0.649,8.135,1.82,11.894
		c9.907,2.916,21.557,2.065,30.443-2.557c12.815-6.666,21.574-20.056,21.574-35.5c0-5.782-1.243-11.653-3.451-17.122
		C461.574,251.601,458.094,251,454.5,251z"/>
</g>
<path style="fill:#FF5368;" d="M504.5,371.5c0-5.523-4.477-10-10-10h-80c-5.523,0-10,4.477-10,10v35h-32.333v-35
	c0-5.523-4.477-10-10-10h-80c-5.523,0-10,4.477-10,10v35h-32.333v-35c0-5.523-4.477-10-10-10h-80c-5.523,0-10,4.477-10,10v35H107.5
	v-35c0-5.523-4.477-10-10-10h-80c-5.523,0-10,4.477-10,10v50h66v45h66.333H173.5h33h33.333h32.333H306.5h33h32.667H439.5v-45h65
	V371.5z"/>
<g>
	<path style="fill:#C5324F;" d="M107.5,371.5c0-5.523-4.477-10-10-10h-20v45h30V371.5z"/>
	<path style="fill:#C5324F;" d="M494.5,361.5h-20v60h30v-50C504.5,365.977,500.023,361.5,494.5,361.5z"/>
	<path style="fill:#C5324F;" d="M372.167,371.5c0-5.523-4.477-10-10-10h-20v45h30V371.5z"/>
	<path style="fill:#C5324F;" d="M429.5,406.5h-20v30c-13.594,0-324.268,0-336,0v30c14.209,0,363.791,0,366,0v-50
		C439.5,410.977,435.023,406.5,429.5,406.5z"/>
	<path style="fill:#C5324F;" d="M239.833,371.5c0-5.523-4.477-10-10-10h-20v45h30V371.5z"/>
</g>
<path d="M502,355.713v-2.639c0-10.141-5.219-19.085-13.111-24.29C497.191,320.096,502,308.448,502,296
	c0-12.589-4.924-25.583-13.509-35.651c-7.413-8.693-16.624-14.251-26.491-16.13V75.5c0-20.678-16.822-37.5-37.5-37.5h-337
	C66.822,38,50,54.822,50,75.5v168.719c-9.867,1.879-19.078,7.437-26.491,16.13C14.924,270.417,10,283.411,10,296
	c0,12.448,4.808,24.096,13.111,32.784C15.219,333.988,10,342.933,10,353.073v2.639c-5.902,2.816-10,8.824-10,15.787v50
	c0,4.142,3.358,7.5,7.5,7.5s7.5-3.358,7.5-7.5v-50c0-1.378,1.122-2.5,2.5-2.5h80c1.378,0,2.5,1.122,2.5,2.5V399H83.5
	c-9.649,0-17.5,7.851-17.5,17.5v50c0,4.142,3.358,7.5,7.5,7.5s7.5-3.358,7.5-7.5v-50c0-1.378,1.122-2.5,2.5-2.5h80
	c1.378,0,2.5,1.122,2.5,2.5v50c0,4.142,3.358,7.5,7.5,7.5s7.5-3.358,7.5-7.5v-50c0-9.649-7.851-17.5-17.5-17.5h-16.167v-27.5
	c0-1.378,1.122-2.5,2.5-2.5h80c1.378,0,2.5,1.122,2.5,2.5V399H216.5c-9.649,0-17.5,7.851-17.5,17.5v50c0,4.142,3.358,7.5,7.5,7.5
	s7.5-3.358,7.5-7.5v-50c0-1.378,1.122-2.5,2.5-2.5h80c1.379,0,2.5,1.122,2.5,2.5v50c0,4.142,3.357,7.5,7.5,7.5s7.5-3.358,7.5-7.5
	v-50c0-9.649-7.851-17.5-17.5-17.5h-16.833v-27.5c0-1.378,1.121-2.5,2.5-2.5h80c1.379,0,2.5,1.122,2.5,2.5V399H349.5
	c-9.649,0-17.5,7.851-17.5,17.5v50c0,4.142,3.357,7.5,7.5,7.5s7.5-3.358,7.5-7.5v-50c0-1.378,1.121-2.5,2.5-2.5h80
	c1.379,0,2.5,1.122,2.5,2.5v50c0,4.142,3.357,7.5,7.5,7.5s7.5-3.358,7.5-7.5v-50c0-9.649-7.851-17.5-17.5-17.5H412v-27.5
	c0-1.378,1.121-2.5,2.5-2.5h80c1.379,0,2.5,1.122,2.5,2.5v50c0,4.142,3.357,7.5,7.5,7.5s7.5-3.358,7.5-7.5v-50
	C512,364.537,507.902,358.528,502,355.713z M487,296c0,12.167-6.719,23.221-17.534,28.846c-3.066,1.595-4.646,5.078-3.824,8.435
	c0.82,3.357,3.829,5.719,7.285,5.719c7.76,0,14.073,6.313,14.073,14.073V354h-65v-0.927c0-7.76,6.313-14.073,14.073-14.073
	c3.456,0,6.465-2.361,7.285-5.719c0.821-3.357-0.758-6.84-3.824-8.435c-10.815-5.625-17.534-16.679-17.532-28.855l0.01-0.399
	c0.209-17.153,14.445-37.091,32.488-37.091C472.804,258.5,487,278.658,487,296z M87.5,53h337c12.406,0,22.5,10.093,22.5,22.5
	v168.721c-9.777,1.865-18.92,7.344-26.298,15.907c-6.857,7.958-11.416,17.808-13.035,27.872h-38.665
	c-1.614-10.047-6.176-19.906-13.038-27.871c-9.239-10.724-21.241-16.629-33.797-16.629s-24.559,5.905-33.798,16.628
	c-6.857,7.958-11.416,17.808-13.035,27.872h-38.665c-1.614-10.047-6.176-19.906-13.038-27.871
	c-9.239-10.724-21.242-16.629-33.797-16.629c-12.556,0-24.559,5.905-33.797,16.629c-6.856,7.957-11.415,17.804-13.034,27.871
	h-38.666c-1.614-10.047-6.176-19.906-13.038-27.871c-7.378-8.563-16.521-14.043-26.297-15.907V75.5C65,63.093,75.093,53,87.5,53z
	 M307.201,324.846c-10.815-5.625-17.534-16.679-17.532-28.855l0.01-0.399c0.209-17.153,14.445-37.091,32.488-37.091
	c18.042,0,32.278,19.939,32.488,37.088l0.012,0.412c0,12.167-6.719,23.22-17.535,28.846c-3.066,1.595-4.646,5.078-3.824,8.435
	c0.82,3.357,3.829,5.719,7.285,5.719c7.761,0,14.074,6.313,14.074,14.073V354h-65v-0.927c0-7.76,6.313-14.073,14.073-14.073
	c3.456,0,6.465-2.361,7.285-5.719C311.847,329.924,310.268,326.441,307.201,324.846z M174.868,324.846
	c-10.815-5.626-17.534-16.679-17.532-28.868l0.01-0.387c0.209-17.152,14.446-37.091,32.488-37.091s32.279,19.939,32.488,37.088
	l0.012,0.412c0,12.167-6.719,23.22-17.535,28.846c-3.066,1.595-4.646,5.078-3.824,8.435c0.821,3.357,3.829,5.719,7.285,5.719
	c7.76,0,14.074,6.313,14.074,14.073V354h-65v-0.927c0-7.76,6.313-14.073,14.073-14.073c3.456,0,6.464-2.361,7.285-5.718
	C179.513,329.924,177.934,326.441,174.868,324.846z M42.535,324.846C31.719,319.22,25,308.167,25,296
	c0-17.342,14.197-37.5,32.5-37.5c18.042,0,32.279,19.939,32.488,37.088L90,296c0,12.167-6.719,23.22-17.535,28.846
	c-3.066,1.595-4.646,5.078-3.824,8.435c0.821,3.357,3.829,5.719,7.285,5.719C83.687,339,90,345.313,90,353.073V354H25v-0.927
	C25,345.313,31.313,339,39.074,339c3.456,0,6.464-2.361,7.285-5.719C47.18,329.924,45.601,326.441,42.535,324.846z M115,399v-27.5
	c0-6.963-4.098-12.972-10-15.787v-2.639c0-10.141-5.219-19.085-13.111-24.29c6.724-7.035,11.154-16.013,12.596-25.784h38.363
	c1.443,9.771,5.872,18.748,12.596,25.784c-7.893,5.204-13.111,14.149-13.111,24.29v2.639c-5.902,2.816-10,8.824-10,15.787V399H115z
	 M247.333,399v-27.5c0-6.963-4.098-12.972-10-15.787v-2.639c0-10.141-5.219-19.085-13.111-24.29
	c6.724-7.035,11.154-16.013,12.596-25.784h38.363c1.443,9.771,5.873,18.748,12.596,25.784c-7.893,5.204-13.111,14.149-13.111,24.29
	v2.639c-5.902,2.816-10,8.824-10,15.787V399H247.333z M379.667,399v-27.5c0-6.963-4.098-12.972-10-15.787v-2.639
	c0-10.141-5.219-19.085-13.112-24.29c6.724-7.035,11.155-16.013,12.597-25.784h38.363c1.443,9.771,5.873,18.748,12.596,25.784
	c-7.893,5.204-13.111,14.149-13.111,24.29v2.639c-5.902,2.816-10,8.824-10,15.787V399H379.667z"/>
<path d="M211,193c4.14,0,7.5-3.36,7.5-7.5v-47.86l65.729,32.86l-76.47,38.24c-0.23,0.11-0.46,0.23-0.69,0.37l-0.03,0.02
	c0,0-0.01,0.01-0.02,0.01c-1.01,0.63-1.87,1.51-2.47,2.54c-0.01,0.01-0.02,0.03-0.03,0.04l-0.01,0.02
	c-0.49,0.84-0.81,1.77-0.94,2.74s-0.08,1.94,0.16,2.89c0.01,0,0.01,0.02,0.01,0.02l0.01,0.05c0.18,0.64,0.43,1.26,0.77,1.84
	c0.01,0.01,0.02,0.03,0.03,0.04c0.7,1.2,1.73,2.17,2.95,2.82c0.01,0,0.01,0,0.01,0l0.05,0.03c0.72,0.37,1.48,0.62,2.29,0.74v-0.05
	l0.01,0.05c0.38,0.06,0.77,0.09,1.14,0.09c0.6,0,1.19-0.07,1.77-0.21l0.02-0.01h0.04c0.56-0.14,1.1-0.35,1.62-0.62l89.9-44.95
	c2.561-1.28,4.15-3.85,4.15-6.71s-1.59-5.43-4.15-6.71l-90-45c-2.29-1.14-5.12-1.02-7.29,0.33c-2.23,1.38-3.56,3.76-3.56,6.38v60
	C203.5,189.64,206.86,193,211,193z"/>
<g>
</g>
<g>
</g>
<g>
</g>
<g>
</g>
<g>
</g>
<g>
</g>
<g>
</g>
<g>
</g>
<g>
</g>
<g>
</g>
<g>
</g>
<g>
</g>
<g>
</g>
<g>
</g>
<g>
</g>
</svg>
