<?xml version="1.0" encoding="iso-8859-1"?>
<!-- Generator: Adobe Illustrator 19.0.0, SVG Export Plug-In . SVG Version: 6.00 Build 0)  -->
<svg version="1.1" id="Capa_1" xmlns="http://www.w3.org/2000/svg" xmlns:xlink="http://www.w3.org/1999/xlink" x="0px" y="0px"
	 viewBox="0 0 512 512" style="enable-background:new 0 0 512 512;" xml:space="preserve">
<path style="fill:#C2C7D0;" d="M491.878,456.288c6.919,0,12.582-5.767,12.582-12.817v-2.817c0-7.049-5.661-12.817-12.582-12.817"/>
<path style="fill:#ABB0B7;" d="M491.878,456.288c6.919,0,12.582-5.767,12.582-12.817v-2.817c0-2.049-0.49-3.982-1.338-5.704
	c-2.07,4.203-6.334,7.112-11.244,7.112"/>
<path style="fill:none;stroke:#474D54;stroke-width:15;stroke-linecap:round;stroke-linejoin:round;stroke-miterlimit:10;" d="
	M491.918,456.289c6.919,0,12.582-5.661,12.582-12.582v-2.765c0-6.92-5.661-12.582-12.582-12.582"/>
<path style="fill:#ABFFDB;" d="M221.066,428.36c0-5.87,0-231.309,0-239.982c0-3.262,2.645-5.907,5.907-5.907h187.7V63.405
	c0-5.274-5.184-8.987-10.178-7.288L49.809,176.783c-6.482,2.205-10.841,8.293-10.841,15.14v236.438L221.066,428.36L221.066,428.36z"
	/>
<path style="fill:#92E0C0;" d="M61.412,172.836l-11.603,3.947c-6.482,2.205-10.841,8.292-10.841,15.14v236.438H58.97V181.527
	C58.97,178.383,59.851,175.395,61.412,172.836z"/>
<path style="fill:#FFFFFF;" d="M474.506,180.471H224.974c-3.262,0-5.907,2.645-5.907,5.907c0,8.673,0,236.111,0,241.982h261.555
	c0-5.412,0-237.337,0-241.774C480.621,183.21,477.883,180.471,474.506,180.471z"/>
<path style="fill:#E4EAF8;" d="M239.067,428.36c0-5.87,0-233.309,0-241.982c0-3.262,2.645-5.907,5.907-5.907h-20.001
	c-3.262,0-5.907,2.645-5.907,5.907c0,8.673,0,236.111,0,241.982H239.067L239.067,428.36L239.067,428.36z"/>
<path style="fill:#FFC850;" d="M474.506,180.471H224.974c-3.262,0-5.907,2.645-5.907,5.907c0,3.302,0,42.892,0,90.974h261.555
	c0-48.97,0-89.058,0-90.766C480.621,183.209,477.883,180.471,474.506,180.471z"/>
<path style="fill:#FEA82F;" d="M219.066,186.379c0,3.302,0,42.892,0,90.974h20.001c0-46.897,0-87.409,0-90.974
	c0-3.262,2.645-5.907,5.907-5.907h-20.001C221.754,180.471,219.066,183.078,219.066,186.379z"/>
<path style="fill:#FFC850;" d="M411.642,305.661H287.941c-1.617,0-2.928,1.311-2.928,2.928c0,4.299,0,116.861,0,119.771h129.661
	c0-2.683,0-117.469,0-119.668C414.674,307.018,413.317,305.661,411.642,305.661z"/>
<path style="fill:#FEA82F;" d="M349.843,305.661h-61.902c-1.617,0-2.928,1.311-2.928,2.928c0,4.299,0,116.861,0,119.771h64.83
	L349.843,305.661L349.843,305.661z"/>
<path style="fill:#FF8031;" d="M307.943,305.661h-20.001c-1.617,0-2.928,1.311-2.928,2.928c0,4.299,0,116.861,0,119.771h20.001
	c0-2.91,0-115.472,0-119.771C305.014,306.972,306.326,305.661,307.943,305.661z"/>
<rect x="77.485" y="390.603" style="fill:#6DC296;" width="103.276" height="37.752"/>
<rect x="77.485" y="352.851" style="fill:#92E0C0;" width="103.276" height="37.752"/>
<rect x="77.485" y="315.109" style="fill:#6DC296;" width="103.276" height="37.752"/>
<rect x="77.485" y="390.603" style="fill:#5FA77E;" width="20.001" height="37.752"/>
<rect x="77.485" y="352.851" style="fill:#6DC296;" width="20.001" height="37.752"/>
<rect x="77.485" y="315.109" style="fill:#5FA77E;" width="20.001" height="37.752"/>
<path style="fill:#92E0C0;" d="M180.759,315.105v-30.306c0-4.112-3.333-7.445-7.445-7.445H84.931c-4.112,0-7.445,3.333-7.445,7.445
	v30.306H180.759z"/>
<path style="fill:#6DC296;" d="M104.932,277.352H84.931c-4.112,0-7.445,3.333-7.445,7.445v30.306h20.001v-30.306
	C97.487,280.686,100.821,277.352,104.932,277.352z"/>
<path style="fill:#C2C7D0;" d="M491.878,427.838c-12.115,0-467.36,0-471.836,0c-6.919,0-12.582,5.767-12.582,12.817v2.817
	c0,7.049,5.661,12.817,12.582,12.817c4.299,0,465.836,0,471.836,0"/>
<path style="fill:#ABB0B7;" d="M491.878,442.063c-5.999,0-467.536,0-471.836,0c-4.908,0-9.173-2.909-11.244-7.112
	c-0.848,1.722-1.338,3.655-1.338,5.704v2.817c0,7.049,5.661,12.817,12.582,12.817c4.299,0,465.836,0,471.836,0"/>
<g>
	<path style="fill:#FFFFFF;" d="M291.995,238.527c-1.021,1.729-2.594,2.279-4.087,2.279c-1.415,0-2.908-0.472-3.852-2.279
		l-7.467-13.677v30.262c0,2.515-3.065,3.772-6.13,3.772s-6.131-1.258-6.131-3.772v-47.555c0-4.48,3.065-6.13,6.131-6.13
		c4.401,0,6.288,0.472,9.511,6.13l8.096,14.149l8.096-14.149c3.222-5.659,5.109-6.13,9.511-6.13c3.144,0,6.13,1.65,6.13,6.13v47.555
		c0,2.515-3.065,3.772-6.13,3.772c-3.065,0-6.131-1.258-6.131-3.772v-29.477L291.995,238.527z"/>
	<path style="fill:#FFFFFF;" d="M316.36,253.854c0-0.236,0.079-0.55,0.157-0.865l14.62-47.948c0.865-2.751,4.401-4.087,8.017-4.087
		c3.615,0,7.152,1.336,8.017,4.087l14.699,47.948c0.079,0.314,0.157,0.629,0.157,0.865c0,2.908-4.48,5.03-7.86,5.03
		c-1.965,0-3.537-0.629-4.009-2.279l-2.672-9.826h-16.585l-2.672,9.826c-0.472,1.65-2.043,2.279-4.008,2.279
		C320.84,258.884,316.36,256.762,316.36,253.854z M344.894,237.348l-5.738-21.065l-5.738,21.065H344.894z"/>
	<path style="fill:#FFFFFF;" d="M371.932,258.884c-2.672,0-5.345-1.258-5.345-3.772V205.12c0-2.594,3.065-3.694,6.131-3.694
		c3.066,0,6.13,1.1,6.13,3.694v43.075h17.921c2.358,0,3.537,2.672,3.537,5.345c0,2.672-1.179,5.345-3.537,5.345h-24.838V258.884z"/>
	<path style="fill:#FFFFFF;" d="M410.604,258.884c-2.672,0-5.345-1.258-5.345-3.772V205.12c0-2.594,3.065-3.694,6.131-3.694
		s6.13,1.1,6.13,3.694v43.075h17.921c2.358,0,3.537,2.672,3.537,5.345c0,2.672-1.179,5.345-3.537,5.345h-24.838V258.884z"/>
</g>
<g>
	<path style="fill:#474D54;" d="M238.498,448.789H20.082c-2.754,0-5.081-2.327-5.081-5.081v-2.765c0-2.754,2.327-5.081,5.081-5.081
		h471.837c4.142,0,7.5-3.358,7.5-7.5c0-4.142-3.358-7.5-7.5-7.5h-3.756v-73.612c0-4.142-3.358-7.5-7.5-7.5s-7.5,3.358-7.5,7.5
		v73.612H226.607V284.853h246.554v27.392c0,4.142,3.358,7.5,7.5,7.5s7.5-3.358,7.5-7.5V186.587c0-6.276-4.268-11.574-10.055-13.143
		c-0.054-0.015-0.108-0.029-0.163-0.043c-0.38-0.098-0.767-0.18-1.159-0.245c-0.112-0.019-0.225-0.036-0.338-0.052
		c-0.113-0.016-0.227-0.03-0.34-0.043c-0.512-0.059-1.033-0.089-1.561-0.089h-52.331v-19.897c4.016-0.143,7.229-3.443,7.229-7.495
		c0-4.052-3.212-7.352-7.229-7.495v-15.709c4.016-0.143,7.229-3.443,7.229-7.495s-3.212-7.352-7.229-7.495V63.405
		c0-4.89-2.374-9.51-6.35-12.357c-3.976-2.848-9.116-3.607-13.744-2.031L47.434,169.683c-9.526,3.24-15.926,12.179-15.926,22.24
		V420.86H20.082C9.009,420.86,0,429.869,0,440.942v2.765c0,11.074,9.009,20.082,20.082,20.082h218.417c4.142,0,7.5-3.358,7.5-7.5
		S242.641,448.789,238.498,448.789z M473.161,269.852H226.607v-81.88h246.554L473.161,269.852L473.161,269.852z M46.509,191.922
		c0-3.637,2.313-6.867,5.756-8.039L406.952,63.218c0.058-0.021,0.097-0.033,0.179,0.026s0.083,0.1,0.083,0.161v43.975h-57.33
		c-4.142,0-7.5,3.358-7.5,7.5s3.358,7.5,7.5,7.5h57.33v15.698h-57.33c-4.142,0-7.5,3.358-7.5,7.5c0,4.142,3.358,7.5,7.5,7.5h57.33
		v19.891h-182.2c-0.462,0-0.919,0.023-1.369,0.069c-0.113,0.011-0.225,0.024-0.336,0.039c-0.111,0.015-0.223,0.03-0.334,0.047
		c-0.111,0.017-0.221,0.035-0.331,0.055c-0.165,0.03-0.329,0.062-0.492,0.098c-6.022,1.314-10.547,6.689-10.547,13.1V420.86H46.509
		V191.922z"/>
	<path style="fill:#474D54;" d="M491.918,448.789H273.501c-4.142,0-7.5,3.358-7.5,7.5s3.358,7.5,7.5,7.5h218.417
		c4.142,0,7.5-3.358,7.5-7.5S496.06,448.789,491.918,448.789z"/>
</g>
<g>
</g>
<g>
</g>
<g>
</g>
<g>
</g>
<g>
</g>
<g>
</g>
<g>
</g>
<g>
</g>
<g>
</g>
<g>
</g>
<g>
</g>
<g>
</g>
<g>
</g>
<g>
</g>
<g>
</g>
</svg>
