<?xml version="1.0" encoding="iso-8859-1"?>
<!-- Generator: Adobe Illustrator 19.0.0, SVG Export Plug-In . SVG Version: 6.00 Build 0)  -->
<svg version="1.1" id="Capa_1" xmlns="http://www.w3.org/2000/svg" xmlns:xlink="http://www.w3.org/1999/xlink" x="0px" y="0px"
	 viewBox="0 0 491.52 491.52" style="enable-background:new 0 0 491.52 491.52;" xml:space="preserve">
<circle style="fill:#E05B49;" cx="245.76" cy="245.76" r="245.76"/>
<path style="opacity:0.1;enable-background:new    ;" d="M491.52,245.76c0-3.527-0.119-7.023-0.266-10.511L384.41,128.447
	l-0.87-0.871c-1.536-1.382-3.533-2.201-5.734-2.201h-28.16l-1.126-1.075v-0.051c-0.307-0.41-0.819-0.615-1.331-0.615
	c-1.075,0-1.946,0.871-1.946,1.895v2.765h-5.786c-7.27,0-13.773,4.915-15.821,11.93l-7.68,26.675l-204.8,23.602
	c-4.198,0.513-7.014,4.558-5.99,8.653l21.043,82.894c0.358,1.331,1.126,2.56,2.099,3.43l55.091,55.091h-27.802
	c-2.867-7.731-10.291-13.21-18.995-13.21s-16.128,5.479-18.995,13.21h-5.99c-3.226,0-5.837,2.611-5.837,5.837
	c0,1.433,0.512,2.713,1.382,3.738l0.87,0.87l140.412,140.439C382.931,490.006,491.52,380.589,491.52,245.76z"/>
<path style="fill:#FCD462;" d="M111.134,190.508c-4.192,0.485-6.995,4.552-5.957,8.642l21.052,82.892
	c0.786,3.091,3.568,5.255,6.758,5.255h154.252l35.009-121.126L111.134,190.508z"/>
<polygon style="fill:#E56353;" points="250.143,221.374 224.323,221.374 224.323,195.553 196.064,195.553 196.064,221.374 
	170.244,221.374 170.244,249.632 196.064,249.632 196.064,275.453 224.323,275.453 224.323,249.632 250.143,249.632 "/>
<path style="fill:#FFFFFF;" d="M339.475,128.308c-7.29,0-13.793,4.89-15.82,11.895l-42.398,146.892
	c-1.627,5.649-0.582,11.618,2.866,16.377l8.45,11.658c3.608,4.981,4.093,11.228,1.296,16.702c-2.798,5.478-8.136,8.747-14.285,8.747
	H111.616c-3.231,0-5.847,2.618-5.847,5.846c0,3.229,2.615,5.847,5.847,5.847h167.968c10.477,0,19.937-5.795,24.699-15.124
	s3.905-20.393-2.244-28.878l-8.45-11.661c-1.319-1.824-1.719-4.108-1.096-6.271l42.397-146.89c0.588-2.03,2.472-3.448,4.584-3.448
	h9.604v-11.693H339.475z"/>
<circle style="fill:#3A556A;" cx="136.602" cy="347.612" r="20.275"/>
<circle style="fill:#64798A;" cx="136.602" cy="347.612" r="14.218"/>
<g>
	<circle style="fill:#3A556A;" cx="136.602" cy="347.612" r="6.359"/>
	<circle style="fill:#3A556A;" cx="258.406" cy="347.612" r="20.275"/>
</g>
<circle style="fill:#64798A;" cx="258.406" cy="347.612" r="14.218"/>
<g>
	<circle style="fill:#3A556A;" cx="258.406" cy="347.612" r="6.359"/>
	<path style="fill:#3A556A;" d="M377.79,125.384h-28.778c-0.093-0.969-0.85-1.751-1.844-1.751c-1.053,0-1.908,0.855-1.908,1.91
		v17.222c0,1.054,0.855,1.909,1.908,1.909c0.994,0,1.752-0.782,1.844-1.751h28.778c4.836,0,8.77-3.934,8.77-8.77
		C386.56,129.318,382.626,125.384,377.79,125.384z"/>
</g>
<g>
</g>
<g>
</g>
<g>
</g>
<g>
</g>
<g>
</g>
<g>
</g>
<g>
</g>
<g>
</g>
<g>
</g>
<g>
</g>
<g>
</g>
<g>
</g>
<g>
</g>
<g>
</g>
<g>
</g>
</svg>
